# xmcd
#
# Track frame offsets: 
#        150
#        19752
#        40917
#        55380
#        71073
#        85542
#        116010
#        138033
#        161576
#        185116
#        206246
#        224226
#        237498
#        255918
#
# Disc length: 3605 seconds
#
# Revision: 0
# Processed by: cddbd v1.5.2PL0 Copyright (c) Steve Scherf et al.
# Submitted via: ExactAudioCopyFreeDBPlugin 1.0
#
DISCID=d00e130e
DTITLE=Darrell Scott - Couchville Sessions
DYEAR=2016
DGENRE=Country
TTITLE0=Down to the River
TTITLE1=Waiting for the Clothes to Get Clean
TTITLE2=It's Time to Go Away
TTITLE3=Big River
TTITLE4=Love Is the Reason
TTITLE5=Ramblin' Man
TTITLE6=It's About Time
TTITLE7=It's Another Day
TTITLE8=Moonlight Midnight
TTITLE9=Morning Man
TTITLE10=Come into This Room
TTITLE11=Loretta
TTITLE12=Another Grey Morning
TTITLE13=Free (This Is the Love Song)
EXTD=
EXTT0=
EXTT1=
EXTT2=
EXTT3=
EXTT4=
EXTT5=
EXTT6=
EXTT7=
EXTT8=
EXTT9=
EXTT10=
EXTT11=
EXTT12=
EXTT13=
PLAYORDER=
